<?xml version="1.0" encoding="UTF-8"?>
<svg id="Layer_2" data-name="Layer 2" xmlns="http://www.w3.org/2000/svg" viewBox="0 0 305.72 106.28">
  <defs>
    <style>
      .cls-1, .cls-2 {
        fill: #e21e2a;
      }

      .cls-3 {
        letter-spacing: -.02em;
      }

      .cls-4 {
        letter-spacing: 0em;
      }

      .cls-5 {
        letter-spacing: -.01em;
      }

      .cls-2 {
        font-family: FuturaPT-Book, 'Futura PT';
        font-size: 21.59px;
      }

      .cls-6 {
        letter-spacing: 0em;
      }
    </style>
  </defs>
  <g id="Layer_1-2" data-name="Layer 1">
    <g>
      <text class="cls-2" transform="translate(1.03 100.89)"><tspan class="cls-4" x="0" y="0">SCHOOL OF MU</tspan><tspan class="cls-5" x="151.91" y="0">L</tspan><tspan class="cls-4" x="159.36" y="0">TIMEDIA &amp; AR</tspan><tspan class="cls-3" x="284.67" y="0">T</tspan><tspan class="cls-6" x="293.4" y="0">S</tspan></text>
      <path class="cls-1" d="M27.85,21.25l13.56-6.68S39.21,.72,22.14,.77,2.73,16.91,2.73,16.91c0,0-1.66,13.65,9.61,20.09s15.46,8.61,15.02,12.42-2.63,3.86-2.63,3.86c0,0-6.88,1.98-10.05-3.86,0,0-4-4.77-14.68-3.69C0,45.73-.19,62.9,14.92,68.11c0,0,7.61,2.49,15.61,0s11.66-8.49,11.66-8.49c0,0,7.46-11.51,0-22.58,0,0-1.07-3.32-8.68-8.19-6.32-4.05-6.78-4.3-9.8-5.95-7.07-3.85,.78-13.41,4.15-1.66Z"/>
      <path class="cls-1" d="M82.45,0c-19.33,0-34.99,15.67-34.99,34.99s15.67,34.99,34.99,34.99,34.99-15.67,34.99-34.99S101.77,0,82.45,0Zm.12,52.8c-9.43,0-17.07-7.78-17.07-17.39s7.64-17.39,17.07-17.39,17.07,7.78,17.07,17.39-7.64,17.39-17.07,17.39Z"/>
      <path class="cls-1" d="M175.74,7.93C183.7-.85,195.68,.42,199.59,.42c15.54,0,28.14,12.6,28.14,28.14v41.43h0c-10.37,0-18.77-8.4-18.77-18.77V31.49c0-6.44-5.22-11.66-11.66-11.66h0c-6.69,0-12.11,5.42-12.11,12.11v38.05h0c-10.34,0-18.72-8.38-18.72-18.72v-19.11c0-6.81-5.52-12.33-12.33-12.33h0c-6.44,0-11.66,5.22-11.66,11.66v38.5h-18.72V27.12c0-14.75,11.95-26.7,26.7-26.7,3.44,0,6.31-.04,6.31-.04,2.42,.09,8.06,.54,12.53,2.85,2.91,1.5,5.02,3.29,6.44,4.71Z"/>
      <path class="cls-1" d="M276.13,67.06v-18.61s-21.2,7.67-21.66-12.84c-.44-19.93,25.17-16.59,26.03-5.46,.35,4.55,.53,14.11,.49,20.83-.07,11.47,9.2,18.56,20.66,18.56v-.45s0-36.79,0-36.79c0-17.4-14.11-31.51-31.51-31.51l-2.41,.08c-27.48,0-42.75,29.35-29.34,53.16,5.96,10.58,17.05,17.48,37.04,13.87,.4-.07,.7-.43,.7-.84Z"/>
    </g>
  </g>
</svg>
